<svg width="46" height="46" viewBox="0 0 46 46" fill="none" xmlns="http://www.w3.org/2000/svg">
<rect x="0.0687256" width="45.6203" height="45.6203" rx="5" fill="#FF0002"/>
<rect x="0.0687256" width="45.6203" height="45.6203" rx="5" stroke="#493628"/>
<path d="M19.0054 30.9873C18.532 30.9873 18.1269 30.8189 17.79 30.4821C17.4532 30.1452 17.2845 29.7398 17.2839 29.2658V18.0759H16.4231V16.3544H20.7269V15.4937H25.8915V16.3544H30.1953V18.0759H29.3345V29.2658C29.3345 29.7392 29.1661 30.1446 28.8293 30.4821C28.4924 30.8195 28.087 30.9879 27.613 30.9873H19.0054ZM27.613 18.0759H19.0054V29.2658H27.613V18.0759ZM20.7269 27.5443H22.4484V19.7974H20.7269V27.5443ZM24.17 27.5443H25.8915V19.7974H24.17V27.5443Z" fill="white"/>
</svg>
