<svg width="46" height="46" viewBox="0 0 46 46" fill="none" xmlns="http://www.w3.org/2000/svg">
<rect x="0.309235" width="45.6203" height="45.6203" rx="5" fill="#25BA00"/>
<rect x="0.309235" width="45.6203" height="45.6203" rx="5" stroke="#493628"/>
<path d="M23.3518 25.8228C24.7779 25.8228 25.9341 24.6666 25.9341 23.2405C25.9341 21.8143 24.7779 20.6582 23.3518 20.6582C21.9256 20.6582 20.7695 21.8143 20.7695 23.2405C20.7695 24.6666 21.9256 25.8228 23.3518 25.8228Z" stroke="white" stroke-width="2"/>
<path d="M30.3997 22.3229C30.7337 22.7292 30.9006 22.9315 30.9006 23.2405C30.9006 23.5495 30.7337 23.7518 30.3997 24.1581C29.1774 25.642 26.4815 28.405 23.3518 28.405C20.2221 28.405 17.5262 25.642 16.3039 24.1581C15.9699 23.7518 15.8029 23.5495 15.8029 23.2405C15.8029 22.9315 15.9699 22.7292 16.3039 22.3229C17.5262 20.839 20.2221 18.0759 23.3518 18.0759C26.4815 18.0759 29.1774 20.839 30.3997 22.3229Z" stroke="white" stroke-width="2"/>
</svg>
